:version 1.10
:name ASF
:units
  mass 1
  length 1
  angle deg
:documentation
  ASF file generated by Kaydara
:root
  axis xyz
  order  tx ty tz rx ry rz
  position 0 0 0
  orientation 0 0 0
:bonedata
  begin
    id 1
    name lfemurDummy
    direction 0.61522 -0.761478 0.204097
    length 5.68318
    axis 0 -0 0 xyz
  end
  begin
    id 2
    name lfemur
    direction 0.34202 -0.939693 -5.84747e-008
    length 16.9147
    axis 0 -0 20 xyz
    dof rx ry rz
    limits( -inf , inf )
( -inf , inf )
( -inf , inf )

  end
  begin
    id 3
    name ltibia
    direction 0.34202 -0.939693 1.20839e-009
    length 18.0532
    axis 0 -0 20 xyz
    dof rz ry rx
    limits( -inf , inf )
( -inf , inf )
( -inf , inf )

  end
  begin
    id 4
    name lfoot
    direction 0.0841971 -0.23133 0.969225
    length 5.23822
    axis -90 7.62852e-016 20 xyz
    dof ry rx rz
    limits( -inf , inf )
( -inf , inf )
( -inf , inf )

  end
  begin
    id 5
    name ltoes
    direction 0 0 0
    length 0
    axis 0 0 0 xyz
    dof rz ry rx
    limits( -inf , inf )
( -inf , inf )
( -inf , inf )

  end
  begin
    id 6
    name rfemurDummy
    direction -0.625247 -0.75382 0.202044
    length 5.74091
    axis 0 -0 0 xyz
  end
  begin
    id 7
    name rfemur
    direction -0.34202 -0.939693 -1.47013e-008
    length 16.4922
    axis 0 -0 -20 xyz
    dof rx ry rz
    limits( -inf , inf )
( -inf , inf )
( -inf , inf )

  end
  begin
    id 8
    name rtibia
    direction -0.34202 -0.939693 -7.74345e-010
    length 18.2421
    axis 0 -0 -20 xyz
    dof rz ry rx
    limits( -inf , inf )
( -inf , inf )
( -inf , inf )

  end
  begin
    id 9
    name rfoot
    direction -0.124331 -0.341598 0.931586
    length 5.45787
    axis -90 -7.62852e-016 -20 xyz
    dof ry rx rz
    limits( -inf , inf )
( -inf , inf )
( -inf , inf )

  end
  begin
    id 10
    name rtoes
    direction 0 0 0
    length 0
    axis 0 0 0 xyz
    dof rz ry rx
    limits( -inf , inf )
( -inf , inf )
( -inf , inf )

  end
  begin
    id 11
    name lowerbackDummy
    direction 0 0 0
    length 0
    axis 0 -0 0 xyz
  end
  begin
    id 12
    name lowerback
    direction -0.0218484 0.994884 -0.0986304
    length 4.45607
    axis 0 -0 0 xyz
    dof rx ry rz
    limits( -inf , inf )
( -inf , inf )
( -inf , inf )

  end
  begin
    id 13
    name upperback
    direction -0.00973057 0.999717 -0.0217111
    length 4.47449
    axis 0 -0 0 xyz
    dof rx ry rz
    limits( -inf , inf )
( -inf , inf )
( -inf , inf )

  end
  begin
    id 14
    name thorax
    direction -0.000928171 0.999699 0.0245198
    length 4.50973
    axis 0 -0 0 xyz
    dof rx ry rz
    limits( -inf , inf )
( -inf , inf )
( -inf , inf )

  end
  begin
    id 15
    name rclavicle
    direction -0.9009 0.425937 -0.0834055
    length 7.28587
    axis 0 -0 0 xyz
    dof rx ry rz
    limits( -inf , inf )
( -inf , inf )
( -inf , inf )

  end
  begin
    id 16
    name rhumerus
    direction -1 -2.23604e-007 -1.42637e-007
    length 13.5704
    axis 180 30 90 xyz
    dof rx ry rz
    limits( -inf , inf )
( -inf , inf )
( -inf , inf )

  end
  begin
    id 17
    name rradius
    direction -1 5.68281e-008 -4.4952e-007
    length 8.06782
    axis 180 30 90 xyz
    dof rz ry rx
    limits( -inf , inf )
( -inf , inf )
( -inf , inf )

  end
  begin
    id 18
    name rwrist
    direction -1 1.51393e-007 1.38143e-007
    length 4.03391
    axis -90 -90 0 xyz
    dof rz rx ry
    limits( -inf , inf )
( -inf , inf )
( -inf , inf )

  end
  begin
    id 19
    name rthumb
    direction 0 0 0
    length 0
    axis 0 0 0 xyz
    dof ry rx rz
    limits( -inf , inf )
( -inf , inf )
( -inf , inf )

  end
  begin
    id 20
    name rhand
    direction -1 -3.34077e-007 -5.59631e-007
    length 1.29744
    axis -90 -90 0 xyz
    dof ry rx rz
    limits( -inf , inf )
( -inf , inf )
( -inf , inf )

  end
  begin
    id 21
    name rfingers
    direction 0 0 0
    length 0
    axis 0 0 0 xyz
    dof rz ry rx
    limits( -inf , inf )
( -inf , inf )
( -inf , inf )

  end
  begin
    id 22
    name lclavicle
    direction 0.940017 0.332249 -0.0773232
    length 8.29589
    axis 0 -0 0 xyz
    dof rx ry rz
    limits( -inf , inf )
( -inf , inf )
( -inf , inf )

  end
  begin
    id 23
    name lhumerus
    direction 1 7.41158e-008 -1.44768e-008
    length 12.0042
    axis 180 -30 -90 xyz
    dof rx ry rz
    limits( -inf , inf )
( -inf , inf )
( -inf , inf )

  end
  begin
    id 24
    name lradius
    direction 1 -1.32972e-007 3.10821e-007
    length 8.1902
    axis 180 -30 -90 xyz
    dof rz ry rx
    limits( -inf , inf )
( -inf , inf )
( -inf , inf )

  end
  begin
    id 25
    name lwrist
    direction 1 3.08957e-007 4.01394e-007
    length 4.09509
    axis -90 90 0 xyz
    dof rz rx ry
    limits( -inf , inf )
( -inf , inf )
( -inf , inf )

  end
  begin
    id 26
    name lthumb
    direction 0 0 0
    length 0
    axis 0 0 0 xyz
    dof ry rx rz
    limits( -inf , inf )
( -inf , inf )
( -inf , inf )

  end
  begin
    id 27
    name lhand
    direction 1 -1.64125e-007 -6.99514e-007
    length 1.37229
    axis -90 90 0 xyz
    dof ry rx rz
    limits( -inf , inf )
( -inf , inf )
( -inf , inf )

  end
  begin
    id 28
    name lfingers
    direction 0 0 0
    length 0
    axis 0 0 0 xyz
    dof rz ry rx
    limits( -inf , inf )
( -inf , inf )
( -inf , inf )

  end
  begin
    id 29
    name lowerneck
    direction -0.030798 0.998024 0.0547665
    length 3.93918
    axis 0 -0 0 xyz
    dof rx ry rz
    limits( -inf , inf )
( -inf , inf )
( -inf , inf )

  end
  begin
    id 30
    name upperneck
    direction 0.0531588 0.996611 -0.0627736
    length 3.95491
    axis 0 -0 0 xyz
    dof rx ry rz
    limits( -inf , inf )
( -inf , inf )
( -inf , inf )

  end
  begin
    id 31
    name head
    direction 0 0 0
    length 0
    axis 0 0 0 xyz
    dof rx ry rz
    limits( -inf , inf )
( -inf , inf )
( -inf , inf )

  end
:hierarchy
  begin
    root lfemurDummy rfemurDummy lowerbackDummy
    lfemurDummy lfemur
    lfemur ltibia
    ltibia lfoot
    lfoot ltoes
    rfemurDummy rfemur
    rfemur rtibia
    rtibia rfoot
    rfoot rtoes
    lowerbackDummy lowerback
    lowerback upperback
    upperback thorax
    thorax rclavicle lclavicle lowerneck
    rclavicle rhumerus
    rhumerus rradius
    rradius rwrist
    rwrist rthumb rhand
    rhand rfingers
    lclavicle lhumerus
    lhumerus lradius
    lradius lwrist
    lwrist lthumb lhand
    lhand lfingers
    lowerneck upperneck
    upperneck head
  end

:SAMPLES-PER-SECOND 30
:FULLY-SPECIFIED
:DEGREES
19
root  5.886777743 34.36266681 -2.117075507 -7.192993164 -76.32800293 -2.852996826
lowerback  10.46370029 5.42468977 -1.619349957
upperback  3.021869898 6.858679771 -1.899320006
thorax  -2.635780096 3.371870041 -1.919700027
lowerneck  -9.586970329 5.690629959 -7.55479002
upperneck  11.59749985 8.263050079 3.908689976
head  4.565629959 3.966700077 2.943340063
lclavicle  0 -9.442270133e-015 7.951389973e-016
lhumerus  -2.595350027 -14.60529995 75.65850067
lradius  2.516242734e-031 -2.477370893e-031 135.4459991
lwrist  -7.062250077e-031 -1.765562519e-031 7.481820107
lhand  -1.496451383e-031 -27.76390076 20.11240005
lfingers  90 7.125020027 -90
lthumb  89.89689403 5.08795885 91.16245106
rclavicle  0 -9.442270133e-015 7.951389973e-016
rhumerus  -7.917039871 28.3696003 -87.5164032
rradius  -1.018306297e-031 3.381108742e-031 106.7610016
rwrist  1.059337512e-030 -0 -1.169100046
rhand  -7.920061211e-032 -33.2840004 9.303460121
rfingers  -90 -7.125020027 -90
rthumb  -92.93752616 -24.25625642 -97.11982154
rfemur  -4.307240009 13.57989979 3.361520052
rtibia  -0 0 66.12010193
rfoot  -5.202050223e-032 -31.95179939 -2.100879908
rtoes  5.373923086 19.29304026 -105.8922705
lfemur  -25.02120018 -3.320760012 8.46337986
ltibia  -0 0 66.22440338
lfoot  -0 -13.61489964 -9.765640259
ltoes  -4.250644065 -19.5611806 -102.515957
20
root  5.707622138 34.16866693 -2.093313247 -6.641998291 -77.51399994 -4.184997559
lowerback  10.22889996 5.816880226 -1.340219975
upperback  2.882169962 7.411300182 -2.04027009
thorax  -2.588589907 3.648750067 -2.267379999
lowerneck  -9.487919807 5.878620148 -6.717209816
upperneck  11.45330048 8.390339851 3.909189939
head  4.531000137 4.069379807 2.812069893
lclavicle  0 -9.442270133e-015 7.951389973e-016
lhumerus  -3.088670015 -15.61320019 76.31620026
lradius  2.525478347e-031 -2.467955258e-031 135.6600037
lwrist  0 -0 7.144979954
lhand  -1.496451383e-031 -27.76390076 20.11240005
lfingers  90 7.125020027 -90
lthumb  89.89689403 5.08795885 91.16245106
rclavicle  0 -9.442270133e-015 7.951389973e-016
rhumerus  -7.506470203 28.24279976 -88.07240295
rradius  -8.865692316e-032 3.418016828e-031 104.5410004
rwrist  3.531125038e-031 -3.531125038e-031 -1.326519966
rhand  -7.920061211e-032 -33.2840004 9.303460121
rfingers  -90 -7.125020027 -90
rthumb  -92.93752616 -24.25625642 -97.11982154
rfemur  -3.691679955 14.60690022 3.716569901
rtibia  -0 0 66.29840088
rfoot  -5.237542456e-032 -32.56900024 -1.484779954
rtoes  5.373923086 19.29304026 -105.8922705
lfemur  -24.11940002 -3.174730062 8.958849907
ltibia  -0 0 67.67240143
lfoot  -0 -13.95549965 -9.735719681
ltoes  -4.250644065 -19.5611806 -102.515957
21
root  5.510822056 34.0146673 -2.070364426 -5.783996582 -78.64399719 -5.917999268
lowerback  10.00889969 6.269040108 -1.030799985
upperback  2.663229942 8.042599678 -2.249490023
thorax  -2.606669903 3.964440107 -2.712939978
lowerneck  -9.221309662 5.980090141 -5.635000229
upperneck  11.42790031 8.345930099 4.005459785
head  4.520760059 4.099989891 2.660490036
lclavicle  0 -9.442270133e-015 7.951389973e-016
lhumerus  -3.526070118 -16.85989952 76.84130096
lradius  2.533304689e-031 -2.459921013e-031 135.8419952
lwrist  -1.412450015e-030 -0 6.925640106
lhand  -1.496451383e-031 -27.76390076 20.11240005
lfingers  90 7.125020027 -90
lthumb  89.89689403 5.08795885 91.16245106
rclavicle  0 -9.442270133e-015 7.951389973e-016
rhumerus  -7.409369946 27.67180061 -88.88749695
rradius  -7.703510822e-032 3.446070697e-031 102.6009979
rwrist  3.531125038e-031 -0 -1.237910032
rhand  -7.920061211e-032 -33.2840004 9.303460121
rfingers  -90 -7.125020027 -90
rthumb  -92.93752616 -24.25625642 -97.11982154
rfemur  -2.964819908 15.29209995 4.125699997
rtibia  -0 0 66.42320251
rfoot  -5.259578617e-032 -32.94290161 -1.408990026
rtoes  5.373923086 19.29304026 -105.8922705
lfemur  -23.10709953 -3.259850025 9.487580299
ltibia  -0 0 69.03150177
lfoot  -0 -14.16520023 -8.982930183
ltoes  -4.250644065 -19.5611806 -102.515957
22
root  5.298155687 33.88800133 -2.04975774 -5.027999878 -79.65200043 -7.714004517
lowerback  9.751259804 6.54238987 -0.8840659857
upperback  2.569459915 8.425880432 -2.328759909
thorax  -2.516530037 4.157209873 -2.891089916
lowerneck  -9.102009773 6.190480232 -5.134260178
upperneck  11.53470039 8.508310318 4.37278986
head  4.528800011 4.223090172 2.70104003
lclavicle  0 -9.442270133e-015 7.951389973e-016
lhumerus  -4.016220093 -17.42779922 77.3246994
lradius  2.544654963e-031 -2.448177926e-031 136.1069946
lwrist  0 -3.531125038e-031 6.909530163
lhand  -1.496451383e-031 -27.76390076 20.11240005
lfingers  90 7.125020027 -90
lthumb  89.89689403 5.08795885 91.16245106
rclavicle  0 -9.442270133e-015 7.951389973e-016
rhumerus  -7.335010052 27.51790047 -89.62660217
rradius  -6.781860685e-032 3.465387091e-031 101.072998
rwrist  7.062250077e-031 -3.531125038e-031 -1.052000046
rhand  -7.920061211e-032 -33.2840004 9.303460121
rfingers  -90 -7.125020027 -90
rthumb  -92.93752616 -24.25625642 -97.11982154
rfemur  -1.96784997 15.65240002 4.534910202
rtibia  -0 0 66.48410034
rfoot  -5.275162459e-032 -33.20320129 -1.415439963
rtoes  5.373923086 19.29304026 -105.8922705
lfemur  -21.93090057 -3.350729942 10.00769997
ltibia  -0 0 70.23619843
lfoot  -0 -14.02079964 -8.26651001
ltoes  -4.250644065 -19.5611806 -102.515957
23
root  5.070022147 33.78733237 -2.032780084 -3.716003418 -80.52649689 -10.16499329
lowerback  9.477470398 6.654990196 -0.8383809924
upperback  2.530940056 8.593629837 -2.239000082
thorax  -2.407599926 4.24338007 -2.810260057
lowerneck  -9.2374897 6.487770081 -5.152699947
upperneck  11.90030003 8.843079567 4.962520123
head  4.616360188 4.421249866 2.916500092
lclavicle  0 -9.442270133e-015 7.951389973e-016
lhumerus  -4.377960205 -17.51989937 77.82150269
lradius  2.55314284e-031 -2.43932484e-031 136.3059998
lwrist  -7.062250077e-031 -0 7.070330143
lhand  -1.496451383e-031 -27.76390076 20.11240005
lfingers  90 7.125020027 -90
lthumb  89.89689403 5.08795885 91.16245106
rclavicle  0 -9.442270133e-015 7.951389973e-016
rhumerus  -7.533599854 27.84740067 -90.31130219
rradius  -6.230640901e-032 3.475720814e-031 100.163002
rwrist  1.412450015e-030 -3.531125038e-031 -0.8576290011
rhand  -7.920061211e-032 -33.2840004 9.303460121
rfingers  -90 -7.125020027 -90
rthumb  -92.93752616 -24.25625642 -97.11982154
rfemur  -0.7328900099 15.81939983 5.103129864
rtibia  -0 0 66.47419739
rfoot  -5.283651808e-032 -33.34360123 -1.37883997
rtoes  5.373923086 19.29304026 -105.8922705
lfemur  -20.64710045 -3.599499941 10.63249969
ltibia  -0 0 71.23870087
lfoot  -0 -13.46730042 -8.447480202
ltoes  -4.250644065 -19.5611806 -102.515957
24
root  4.818333228 33.72288802 -2.015633283 -0.6399993896 -81.14579773 -14.31199646
lowerback  8.987799644 6.624249935 -0.6652299762
upperback  2.496959925 8.595069885 -2.051840067
thorax  -2.178819895 4.249849796 -2.651839972
lowerneck  -9.720479965 6.808440208 -5.413129807
upperneck  12.61740017 9.231049538 5.730050087
head  4.844260216 4.645989895 3.254600048
lclavicle  0 -9.442270133e-015 7.951389973e-016
lhumerus  -4.413969994 -17.38570023 78.10839844
lradius  2.558501318e-031 -2.433703976e-031 136.4320068
lwrist  -7.062250077e-031 -1.765562519e-031 7.550759792
lhand  -1.496451383e-031 -27.76390076 20.11240005
lfingers  90 7.125020027 -90
lthumb  89.89689403 5.08795885 91.16245106
rclavicle  0 -9.442270133e-015 7.951389973e-016
rhumerus  -7.924200058 28.36580086 -90.91300201
rradius  -6.057066581e-032 3.478787645e-031 99.8769989
rwrist  1.059337512e-030 3.531125038e-031 -0.8661370277
rhand  -7.920061211e-032 -33.2840004 9.303460121
rfingers  -90 -7.125020027 -90
rthumb  -92.93752616 -24.25625642 -97.11982154
rfemur  0.5956320167 15.64350033 5.965400219
rtibia  -0 0 66.37290192
rfoot  -7.924476689e-032 -33.33259964 -1.806679964
rtoes  5.373923086 19.29304026 -105.8922705
lfemur  -19.48530006 -4.083499908 11.49530029
ltibia  -0 0 72.0522995
lfoot  -0 -12.6182003 -9.259110451
ltoes  -4.250644065 -19.5611806 -102.515957
